<svg width="154" height="230" viewBox="0 0 154 230" fill="none" xmlns="http://www.w3.org/2000/svg">
<path d="M161.698 42.8862C131.081 70.28 85.9286 71.7751 55.3759 96.7728C40.4137 109.015 30.5211 121.694 21.2658 139.048C17.5834 145.952 4.33275 173.037 13.1012 180.052C16.3838 182.678 16.2929 190.848 19.6329 194.93C24.1295 200.426 27.621 206.003 32.6963 211.078C40.2611 218.643 45.1959 219.242 55.5573 219.242C84.9052 219.242 103.825 190.613 119.604 168.259C142.8 135.398 201.067 137.596 237.538 137.596C259.366 137.596 288.671 130.969 298.864 110.018C305.025 97.3537 305.038 69.6806 301.404 55.9496C294.047 28.156 259.034 10.2276 232.458 10.2276C209.873 10.2276 197.561 7.37854 181.293 21.8396C176.504 26.0961 170.563 36.8204 164.964 39.6203" stroke="#F4CC4B" stroke-width="20" stroke-linecap="round"/>
</svg>
