<svg width="118" height="267" viewBox="0 0 118 267" fill="none" xmlns="http://www.w3.org/2000/svg">
<path d="M-117.487 195.139C-77.1081 181.77 -77.6479 155.477 -88.9411 121.367C-113.572 46.9724 -29.6793 28.4835 25.2441 11.6741C46.3374 5.21851 68.466 44.6973 65.1507 61.1011C60.4491 84.3635 71.9076 103.783 90.2789 116.682C113.755 133.165 113.203 159.658 88.7762 173.092C61.6971 187.986 32.3747 194.328 1.53799 188.312C-17.911 184.518 -38.111 188.288 -55.904 197.661C-64.2375 202.052 -66.2312 231.105 -74.5415 239.776C-91.7372 257.717 -122.36 264.115 -139.794 242.041C-161.117 215.044 -145.576 204.438 -120.897 196.267" stroke="#FF545C" stroke-width="20" stroke-linecap="round"/>
</svg>
