<svg width="278" height="267" viewBox="0 0 278 267" fill="none" xmlns="http://www.w3.org/2000/svg">
<path d="M42.5132 195.139C82.8919 181.77 82.3521 155.477 71.0589 121.367C46.4283 46.9724 130.321 28.4835 185.244 11.6741C206.337 5.21851 228.466 44.6973 225.151 61.1011C220.449 84.3635 231.908 103.783 250.279 116.682C273.755 133.165 273.203 159.658 248.776 173.092C221.697 187.986 192.375 194.328 161.538 188.312C142.089 184.518 121.889 188.288 104.096 197.661C95.7625 202.052 93.7688 231.105 85.4585 239.776C68.2628 257.717 37.6402 264.115 20.2061 242.041C-1.11694 215.044 14.4237 204.438 39.1034 196.267" stroke="#FF545C" stroke-width="20" stroke-linecap="round"/>
</svg>
