<svg width="252" height="228" viewBox="0 0 252 228" fill="none" xmlns="http://www.w3.org/2000/svg">
<path d="M146.079 211.845C144.602 175.924 116.783 151.181 86.7891 129.315C66.8153 114.754 37.4006 93.8737 24.1108 74.243C16.2683 62.6587 1.63094 46.3804 16.2054 34.1616C30.8572 21.878 52.5126 12.0035 73.4252 10.3337C112.376 7.22372 128.906 26.1414 135.162 54.9913C137.241 64.5771 134.026 74.6879 136.292 84.1844C139.508 97.6644 153.669 110.273 164.713 119.532C190.188 140.889 233.801 142.992 240.191 178.707C242.099 189.37 245.659 207.069 230.968 211.687C218.378 215.645 204.205 219.764 190.5 217.21C180.971 215.435 173.558 209.005 163.019 209.005C157.022 209.005 148.806 210.737 146.079 206.164" stroke="#F4CB4B" stroke-width="20" stroke-linecap="round"/>
</svg>
