<svg width="154" height="278" viewBox="0 0 154 278" fill="none" xmlns="http://www.w3.org/2000/svg">
<path d="M194.187 39.1322C208.38 59.0021 234.365 81.9587 258.957 88.1787C267.978 102.622 290.158 109.458 299.818 123.948C312.847 143.491 299.657 186.085 275.896 191.365C269.428 192.802 261.726 191.676 255.08 191.676C239.027 191.676 222.213 203.797 213.138 216.996C197.258 240.094 180.001 267.171 148.672 267.171C133.713 267.171 122.109 250.238 122.109 237.035C122.109 216.599 124.929 203.719 133.294 184.53C139.005 171.428 138.26 146.943 134.536 133.113C126.809 104.41 97.8885 93.5528 73.022 85.4234C58.6296 80.7182 42.9572 82.6272 27.9735 82.6272C24.1294 82.6272 14.9631 84.2187 11.8182 81.0739C6.32084 75.5765 14.7959 52.8422 17.4104 47.9865C24.7392 34.376 35.3502 31.4011 49.0997 28.2584C75.603 22.2005 100.518 8.81982 128.323 10.0837C155.85 11.3349 177.764 16.1396 194.187 39.1322Z" fill="#FF545C"/>
<path d="M259.119 88.2195C234.48 82.0597 208.411 59.0459 194.187 39.1322C177.764 16.1396 155.85 11.3349 128.323 10.0837C100.518 8.81982 75.603 22.2005 49.0997 28.2584C35.3502 31.4011 24.7392 34.376 17.4104 47.9865C14.7959 52.8422 6.32084 75.5765 11.8182 81.0739C14.9631 84.2187 24.1294 82.6272 27.9735 82.6272C42.9572 82.6272 58.6296 80.7182 73.022 85.4234C97.8885 93.5528 126.809 104.41 134.536 133.113C138.26 146.943 139.005 171.428 133.294 184.53C124.929 203.719 122.109 216.599 122.109 237.035C122.109 250.238 133.713 267.171 148.672 267.171C180.001 267.171 197.258 240.094 213.138 216.996C222.213 203.797 239.027 191.676 255.08 191.676C261.726 191.676 269.428 192.802 275.896 191.365C299.657 186.085 312.847 143.491 299.818 123.948C288.999 107.72 262.478 101.093 256.323 82.6272" stroke="#FF545C" stroke-width="20" stroke-linecap="round"/>
</svg>
