<svg width="314" height="230" viewBox="0 0 314 230" fill="none" xmlns="http://www.w3.org/2000/svg">
<path d="M161.542 42.8862C130.925 70.28 85.7725 71.7751 55.2197 96.7728C40.2576 109.015 30.365 121.694 21.1097 139.048C17.4273 145.952 4.17662 173.037 12.945 180.052C16.2277 182.678 16.1368 190.848 19.4768 194.93C23.9734 200.426 27.4649 206.003 32.5402 211.078C40.105 218.643 45.0398 219.242 55.4012 219.242C84.7491 219.242 103.669 190.613 119.448 168.259C142.644 135.398 200.911 137.596 237.382 137.596C259.21 137.596 288.515 130.969 298.708 110.018C304.868 97.3537 304.882 69.6806 301.248 55.9496C293.891 28.156 258.877 10.2276 232.302 10.2276C209.717 10.2276 197.405 7.37854 181.137 21.8396C176.348 26.0961 170.407 36.8204 164.807 39.6203" stroke="#F4CC4B" stroke-width="20" stroke-linecap="round"/>
</svg>
